<svg width="29" height="30" viewBox="0 0 29 30" fill="none" xmlns="http://www.w3.org/2000/svg">
<path d="M7 14V12C7 10.6739 7.52678 9.40215 8.46447 8.46447C9.40215 7.52678 10.6739 7 12 7C13.3261 7 14.5979 7.52678 15.5355 8.46447C16.4732 9.40215 17 10.6739 17 12V14H20C20.2652 14 20.5196 14.1054 20.7071 14.2929C20.8946 14.4804 21 14.7348 21 15V27C21 27.2652 20.8946 27.5196 20.7071 27.7071C20.5196 27.8946 20.2652 28 20 28H4C3.73478 28 3.48043 27.8946 3.29289 27.7071C3.10536 27.5196 3 27.2652 3 27V15C3 14.7348 3.10536 14.4804 3.29289 14.2929C3.48043 14.1054 3.73478 14 4 14H7ZM7 16H5V26H19V16H17V18H15V16H9V18H7V16ZM9 14H15V12C15 11.2044 14.6839 10.4413 14.1213 9.87868C13.5587 9.31607 12.7956 9 12 9C11.2044 9 10.4413 9.31607 9.87868 9.87868C9.31607 10.4413 9 11.2044 9 12V14Z" fill="black"/>
<rect x="13" width="16" height="18" rx="8" fill="#00A736"/>
<path d="M23.6895 8.55469V9.85547C23.6895 10.5547 23.627 11.1445 23.502 11.625C23.377 12.1055 23.1973 12.4922 22.9629 12.7852C22.7285 13.0781 22.4453 13.291 22.1133 13.4238C21.7852 13.5527 21.4141 13.6172 21 13.6172C20.6719 13.6172 20.3691 13.5762 20.0918 13.4941C19.8145 13.4121 19.5645 13.2812 19.3418 13.1016C19.123 12.918 18.9355 12.6797 18.7793 12.3867C18.623 12.0938 18.5039 11.7383 18.4219 11.3203C18.3398 10.9023 18.2988 10.4141 18.2988 9.85547V8.55469C18.2988 7.85547 18.3613 7.26953 18.4863 6.79688C18.6152 6.32422 18.7969 5.94531 19.0312 5.66016C19.2656 5.37109 19.5469 5.16406 19.875 5.03906C20.207 4.91406 20.5781 4.85156 20.9883 4.85156C21.3203 4.85156 21.625 4.89258 21.9023 4.97461C22.1836 5.05273 22.4336 5.17969 22.6523 5.35547C22.8711 5.52734 23.0566 5.75781 23.209 6.04688C23.3652 6.33203 23.4844 6.68164 23.5664 7.0957C23.6484 7.50977 23.6895 7.99609 23.6895 8.55469ZM22.5996 10.0312V8.37305C22.5996 7.99023 22.5762 7.6543 22.5293 7.36523C22.4863 7.07227 22.4219 6.82227 22.3359 6.61523C22.25 6.4082 22.1406 6.24023 22.0078 6.11133C21.8789 5.98242 21.7285 5.88867 21.5566 5.83008C21.3887 5.76758 21.1992 5.73633 20.9883 5.73633C20.7305 5.73633 20.502 5.78516 20.3027 5.88281C20.1035 5.97656 19.9355 6.12695 19.7988 6.33398C19.666 6.54102 19.5645 6.8125 19.4941 7.14844C19.4238 7.48438 19.3887 7.89258 19.3887 8.37305V10.0312C19.3887 10.4141 19.4102 10.752 19.4531 11.0449C19.5 11.3379 19.5684 11.5918 19.6582 11.8066C19.748 12.0176 19.8574 12.1914 19.9863 12.3281C20.1152 12.4648 20.2637 12.5664 20.4316 12.6328C20.6035 12.6953 20.793 12.7266 21 12.7266C21.2656 12.7266 21.498 12.6758 21.6973 12.5742C21.8965 12.4727 22.0625 12.3145 22.1953 12.0996C22.332 11.8809 22.4336 11.6016 22.5 11.2617C22.5664 10.918 22.5996 10.5078 22.5996 10.0312Z" fill="white"/>
</svg>
