<svg width="38" height="38" viewBox="0 0 38 38" fill="none" xmlns="http://www.w3.org/2000/svg">
<path d="M15.8337 31.6668H22.167V30.0835H15.8337V31.6668ZM11.0837 36.4168C10.2128 36.4168 9.4676 36.107 8.84799 35.4874C8.22733 34.8667 7.91699 34.121 7.91699 33.2502V4.75016C7.91699 3.87933 8.22733 3.13358 8.84799 2.51291C9.4676 1.8933 10.2128 1.5835 11.0837 1.5835H26.917C27.7878 1.5835 28.5336 1.8933 29.1542 2.51291C29.7739 3.13358 30.0837 3.87933 30.0837 4.75016V33.2502C30.0837 34.121 29.7739 34.8667 29.1542 35.4874C28.5336 36.107 27.7878 36.4168 26.917 36.4168H11.0837ZM11.0837 25.3335H26.917V9.50016H11.0837V25.3335Z" fill="#00A736"/>
</svg>
