<svg width="45" height="45" viewBox="0 0 45 45" fill="none" xmlns="http://www.w3.org/2000/svg">
<path d="M42.75 32.625V12.375C42.75 10.5075 41.2425 9 39.375 9H7.85254C5.98504 9 4.47754 10.5075 4.47754 12.375V32.625C4.47754 34.4925 5.98504 36 7.85254 36H39.375C41.2425 36 42.75 34.4925 42.75 32.625ZM39.8025 12.1275C40.545 12.87 40.14 13.635 39.735 14.0175L30.6 22.3875L39.375 31.5225C39.645 31.8375 39.825 32.3325 39.51 32.67C39.2175 33.03 38.5425 33.0075 38.25 32.7825L28.4175 24.39L23.6025 28.7775L18.81 24.39L8.97754 32.7825C8.68504 33.0075 8.01004 33.03 7.71754 32.67C7.40254 32.3325 7.58254 31.8375 7.85254 31.5225L16.6275 22.3875L7.49254 14.0175C7.08754 13.635 6.68254 12.87 7.42504 12.1275C8.16754 11.385 8.93254 11.745 9.56254 12.285L23.6025 23.625L37.665 12.285C38.295 11.745 39.06 11.385 39.8025 12.1275Z" fill="#00A736"/>
</svg>
