<svg width="57" height="73" viewBox="0 0 57 73" fill="none" xmlns="http://www.w3.org/2000/svg">
<g clip-path="url(#clip0_93_8264)">
<path d="M56.3913 54.407C56.3913 60.8566 42.758 72.34 28.2332 72.34C13.7085 72.3925 0.0751953 60.8566 0.0751953 54.407C0.0751953 49.845 13.7085 45.4404 28.2332 45.4404C42.758 45.4404 56.3913 50.6316 56.3913 54.407Z" fill="#00A736"/>
<path d="M35.4697 64.2645C35.4697 66.2046 31.2224 67.7777 26.0312 67.7777C20.8401 67.7777 16.5928 66.2046 16.5928 64.2645C16.5928 62.3244 20.8401 60.7513 26.0312 60.7513C31.2748 60.6988 35.4697 62.2719 35.4697 64.2645Z" fill="white"/>
<path d="M26.0829 61.2754C21.7307 61.2754 18.165 62.5863 18.165 64.2118C18.165 65.1556 19.3186 65.9946 21.1539 66.519C20.21 66.1519 19.6332 65.68 19.6332 65.1032C19.6332 63.8972 22.5172 62.9009 26.0829 62.9009C29.6485 62.9009 32.5325 63.8972 32.5325 65.1032C32.5325 65.6276 31.9557 66.0995 31.0118 66.519C32.8471 65.9946 34.0007 65.1556 34.0007 64.2118C33.9482 62.5863 30.435 61.2754 26.0829 61.2754Z" fill="#00A736"/>
<path d="M30.4352 65.1556C30.4352 65.9946 28.4426 66.6238 26.0306 66.6238C23.6185 66.6238 21.626 65.9421 21.626 65.1556C21.626 64.3166 23.6185 63.6874 26.0306 63.6874C28.4951 63.635 30.4352 64.3166 30.4352 65.1556Z" fill="#132D02"/>
<path d="M33.1628 53.8291C31.38 53.8291 29.8594 55.2973 29.8594 57.1326C29.8594 58.9154 31.3276 60.436 33.1628 60.436C34.9457 60.436 36.4663 58.9678 36.4663 57.1326C36.4663 55.2973 34.9457 53.8291 33.1628 53.8291Z" fill="white"/>
<path d="M33.1623 53.5674C31.2222 53.5674 29.5967 55.1405 29.5967 57.133C29.5967 59.0731 31.1698 60.6987 33.1623 60.6987C35.1024 60.6987 36.728 59.1256 36.728 57.133C36.728 55.1405 35.1024 53.5674 33.1623 53.5674ZM33.1623 60.3316C31.3795 60.3316 29.9637 58.9158 29.9637 57.133C29.9637 55.3502 31.3795 53.9344 33.1623 53.9344C34.9451 53.9344 36.3609 55.3502 36.3609 57.133C36.3609 58.8634 34.9451 60.3316 33.1623 60.3316Z" fill="#00A736"/>
<path d="M32.8481 60.07C32.7957 60.07 32.7957 60.0176 32.7432 60.0176C32.6908 60.0176 32.6384 60.0176 32.5859 60.07C32.5859 60.07 32.5859 60.07 32.5859 60.1224C32.5859 60.1749 32.6384 60.1749 32.7432 60.1749H32.7957H32.8481C32.8481 60.1224 32.9006 60.1224 32.8481 60.07C32.9006 60.07 32.9006 60.07 32.8481 60.07Z" fill="#00A736"/>
<path d="M32.1671 59.8594C32.1146 59.8594 32.1146 59.8594 32.0622 59.8594C32.0098 59.8594 32.0098 59.9118 32.0098 59.9118C32.0098 59.9642 32.0622 59.9642 32.1146 60.0167C32.1671 60.0167 32.1671 60.0167 32.2195 60.0167C32.2719 60.0167 32.2719 60.0167 32.2719 59.9642C32.2719 59.9642 32.2719 59.9118 32.2195 59.9118C32.2719 59.9118 32.2195 59.9118 32.1671 59.8594Z" fill="#00A736"/>
<path d="M31.6427 59.6501C31.5902 59.6501 31.5378 59.5977 31.5378 59.5977C31.4854 59.5977 31.4854 59.5977 31.4854 59.6501C31.4854 59.7025 31.5378 59.755 31.5902 59.755C31.6427 59.755 31.6951 59.8074 31.6951 59.8074C31.7475 59.8074 31.7475 59.8074 31.7475 59.8074V59.755C31.6951 59.6501 31.6951 59.6501 31.6427 59.6501Z" fill="#00A736"/>
<path d="M31.0127 59.2307C31.0127 59.2831 31.0651 59.3356 31.1176 59.388C31.17 59.4404 31.2224 59.4404 31.2224 59.4404H31.2749C31.2749 59.388 31.2749 59.3356 31.2224 59.2831C31.1176 59.2307 31.0127 59.1783 31.0127 59.2307Z" fill="#00A736"/>
<path d="M30.6464 58.7588C30.5939 58.8112 30.6464 58.8637 30.6464 58.9161C30.6988 58.9685 30.7512 59.021 30.7512 59.021C30.8037 59.021 30.7512 58.9161 30.6988 58.8637C30.7512 58.8112 30.6988 58.7588 30.6464 58.7588Z" fill="#00A736"/>
<path d="M30.3841 58.2344C30.3316 58.2344 30.3316 58.2344 30.3841 58.2344C30.3316 58.2868 30.3316 58.3392 30.3841 58.3917C30.4365 58.4441 30.4889 58.4966 30.4889 58.4966C30.5414 58.4966 30.5414 58.3917 30.4889 58.3392C30.4365 58.2868 30.3841 58.2344 30.3841 58.2344Z" fill="#00A736"/>
<path d="M30.1745 57.6582C30.1221 57.7106 30.1221 57.7631 30.1221 57.8155C30.1221 57.9204 30.1745 57.9728 30.2269 57.9728C30.2794 57.9728 30.2794 57.8679 30.2794 57.8155C30.2794 57.7106 30.2269 57.6582 30.1745 57.6582Z" fill="#00A736"/>
<path d="M30.2266 57.2384C30.2266 57.1335 30.1742 57.0811 30.1218 57.0811C30.1218 57.1335 30.0693 57.1859 30.0693 57.2384C30.0693 57.3432 30.1218 57.3957 30.1218 57.3957C30.1742 57.3957 30.2266 57.3432 30.2266 57.2384Z" fill="#00A736"/>
<path d="M35.9421 55.9272C35.9945 55.8748 35.9945 55.8748 35.9421 55.9272C35.9945 55.8748 35.9945 55.8223 35.9421 55.7699C35.8896 55.7175 35.8372 55.665 35.8372 55.665C35.7847 55.665 35.7847 55.7699 35.8372 55.8223C35.8896 55.8748 35.9421 55.9272 35.9421 55.9272Z" fill="#00A736"/>
<path d="M36.1517 56.4513C36.2042 56.3989 36.2042 56.3465 36.2042 56.294C36.2042 56.1892 36.1517 56.1367 36.0993 56.1367C36.0469 56.1367 36.0469 56.2416 36.0469 56.294C36.0469 56.3989 36.0993 56.4513 36.1517 56.4513Z" fill="#00A736"/>
<path d="M36.1516 56.9239C36.1516 57.0288 36.204 57.0812 36.2565 57.0812C36.2565 57.0288 36.3089 56.9763 36.3089 56.9239C36.3089 56.819 36.2565 56.7666 36.204 56.7666C36.1516 56.7666 36.0992 56.819 36.1516 56.9239Z" fill="#00A736"/>
<path d="M36.2045 57.3438C36.152 57.3438 36.152 57.3438 36.2045 57.3438C36.152 57.3962 36.0996 57.4486 36.0996 57.5011C36.0996 57.6059 36.0996 57.6584 36.152 57.6584C36.2045 57.6584 36.2045 57.6059 36.2569 57.5011C36.2569 57.4486 36.2569 57.4486 36.2045 57.3438Z" fill="#00A736"/>
<path d="M36.0999 57.9199C36.0999 57.9199 36.0474 57.9199 36.0474 57.9724C36.0474 57.9724 35.995 58.0248 35.995 58.0772C35.9425 58.1297 35.995 58.2345 35.995 58.2345C36.0474 58.2345 36.0999 58.1821 36.0999 58.1297C36.0999 58.0772 36.0999 58.0248 36.0999 58.0248C36.0999 57.9199 36.0999 57.9199 36.0999 57.9199Z" fill="#00A736"/>
<path d="M35.8376 58.4961H35.7851C35.7327 58.4961 35.7327 58.5485 35.7327 58.601C35.6803 58.6534 35.6803 58.7583 35.7327 58.7583C35.7851 58.7583 35.8376 58.7058 35.8376 58.6534C35.8376 58.601 35.89 58.601 35.89 58.5485C35.89 58.4961 35.89 58.4961 35.8376 58.4961Z" fill="#00A736"/>
<path d="M35.5225 58.9678C35.47 58.9678 35.4176 59.0202 35.3652 59.0202C35.3127 59.0726 35.2603 59.1775 35.3127 59.1775C35.3127 59.1775 35.3127 59.1775 35.3652 59.1775C35.4176 59.1775 35.47 59.1251 35.5225 59.0726C35.5225 59.1251 35.5225 59.0726 35.5225 58.9678Z" fill="#00A736"/>
<path d="M34.9457 59.4401C34.8933 59.4926 34.8408 59.545 34.8408 59.5974H34.8933C34.9457 59.5974 34.9981 59.5974 34.9981 59.545C35.0506 59.4926 35.103 59.4401 35.103 59.4401C35.103 59.4401 35.103 59.4401 35.103 59.3877C35.103 59.3877 34.9981 59.3877 34.9457 59.4401Z" fill="#00A736"/>
<path d="M34.4213 59.7551C34.3164 59.8076 34.3164 59.86 34.3164 59.9125L34.3688 59.9649C34.4213 59.9649 34.4213 59.9649 34.4737 59.9125C34.5261 59.86 34.5786 59.86 34.5786 59.8076V59.7551C34.5786 59.7027 34.5261 59.7027 34.4213 59.7551Z" fill="#00A736"/>
<path d="M33.95 59.9648H33.8975C33.7927 59.9648 33.7402 60.0173 33.7402 60.0697C33.7402 60.0697 33.7927 60.1222 33.8451 60.1222C33.8451 60.1222 33.8975 60.1222 33.95 60.1222C34.0024 60.1222 34.0549 60.0697 34.1073 60.0173C34.0549 59.9648 34.0024 59.9648 33.95 59.9648Z" fill="#00A736"/>
<path d="M33.3204 60.0176C33.268 60.0176 33.2155 60.0176 33.1631 60.07V60.1224C33.1631 60.1224 33.2155 60.1749 33.3204 60.1749C33.3728 60.1749 33.4253 60.1749 33.4777 60.1224C33.4777 60.1224 33.4777 60.1224 33.4777 60.07C33.4777 60.07 33.4253 60.0176 33.3204 60.0176Z" fill="#00A736"/>
<path d="M32.7432 59.6504C32.6384 59.6504 32.5859 59.6504 32.5859 59.7028V59.7553C32.5859 59.8077 32.6384 59.8077 32.6908 59.8077H32.7432C32.7957 59.8077 32.8481 59.7553 32.8481 59.7553C32.9006 59.7553 32.8481 59.6504 32.7432 59.6504Z" fill="#00A736"/>
<path d="M32.2195 59.4932C32.1671 59.4932 32.1671 59.4932 32.1146 59.4932C32.0622 59.4932 32.0098 59.4932 32.0098 59.5456V59.598C32.0098 59.598 32.0622 59.6505 32.1146 59.7029C32.1671 59.7029 32.1671 59.7029 32.2195 59.7029C32.2719 59.7029 32.3244 59.7029 32.3244 59.6505C32.3244 59.598 32.2719 59.5456 32.2195 59.4932Z" fill="#00A736"/>
<path d="M31.6944 59.2307C31.642 59.1783 31.5371 59.1783 31.5371 59.2307V59.2832C31.5371 59.3356 31.5895 59.388 31.642 59.388C31.6944 59.388 31.6944 59.4405 31.7469 59.4405C31.7993 59.4405 31.7993 59.4405 31.7993 59.388C31.7993 59.388 31.7993 59.2832 31.6944 59.2307Z" fill="#00A736"/>
<path d="M31.1706 58.8115C31.1182 58.8115 31.1182 58.8115 31.1706 58.8115C31.1182 58.864 31.1182 58.864 31.1182 58.864C31.1182 58.9164 31.1182 58.9688 31.1706 59.0213C31.223 59.0737 31.2755 59.0737 31.2755 59.0737H31.3279C31.3803 59.0213 31.3279 58.9688 31.2755 58.9164C31.223 58.864 31.1706 58.8115 31.1706 58.8115Z" fill="#00A736"/>
<path d="M30.8034 58.3398C30.751 58.3398 30.751 58.3398 30.751 58.3923C30.751 58.4447 30.751 58.4972 30.8034 58.5496C30.8558 58.602 30.9083 58.6545 30.9083 58.6545H30.9607C31.0132 58.602 31.0132 58.5496 30.9607 58.4447C30.9083 58.3923 30.8558 58.3398 30.8034 58.3398Z" fill="#00A736"/>
<path d="M30.6458 58.1294C30.6982 58.1294 30.6982 58.0245 30.6982 57.9721C30.6458 57.9196 30.6458 57.8672 30.5933 57.8672C30.5933 57.8672 30.5409 57.8672 30.5409 57.9196C30.5409 57.9196 30.4884 57.9721 30.5409 58.0769C30.5409 58.0769 30.5933 58.1294 30.6458 58.1294Z" fill="#00A736"/>
<path d="M35.89 56.9238C35.8376 56.9238 35.7852 56.9763 35.7852 57.0811C35.7852 57.186 35.8376 57.2384 35.89 57.2384C35.9425 57.2384 35.9949 57.186 35.9949 57.0811C35.9949 56.9763 35.9425 56.9238 35.89 56.9238Z" fill="#00A736"/>
<path d="M35.8373 57.5C35.7849 57.5 35.7324 57.5524 35.7324 57.6573C35.7324 57.7622 35.7324 57.8146 35.7849 57.8146C35.8373 57.8146 35.8897 57.7622 35.8897 57.6573C35.8897 57.6049 35.8897 57.5524 35.8897 57.5C35.8897 57.5 35.8897 57.5 35.8373 57.5Z" fill="#00A736"/>
<path d="M35.7325 58.2342C35.7849 58.1817 35.7325 58.1293 35.7325 58.0768C35.7325 58.0768 35.7325 58.0244 35.68 58.0244C35.6276 58.0244 35.5752 58.0244 35.5227 58.1293C35.4703 58.1817 35.4703 58.2866 35.5227 58.2866C35.5227 58.2866 35.5227 58.2866 35.5752 58.2866C35.6276 58.339 35.68 58.2866 35.7325 58.2342Z" fill="#00A736"/>
<path d="M35.418 58.7586C35.4705 58.7061 35.4705 58.6537 35.4705 58.6013C35.4705 58.5488 35.4705 58.5488 35.418 58.5488C35.418 58.5488 35.418 58.5488 35.3656 58.5488C35.3131 58.5488 35.2607 58.5488 35.2083 58.6537C35.1558 58.7061 35.1558 58.811 35.2083 58.811H35.2607C35.3131 58.8634 35.3656 58.811 35.418 58.7586Z" fill="#00A736"/>
<path d="M34.9984 59.2308C35.0508 59.1784 35.0508 59.1259 35.0508 59.1259V59.0735C34.9984 59.021 34.9459 59.0735 34.8935 59.1259C34.8411 59.1783 34.7886 59.2832 34.8411 59.2832L34.8935 59.3357C34.9459 59.2832 34.9459 59.2308 34.9984 59.2308Z" fill="#00A736"/>
<path d="M34.4737 59.5453C34.5261 59.4928 34.5786 59.4928 34.5786 59.4404V59.388C34.5261 59.3355 34.4737 59.3355 34.4213 59.388C34.3688 59.4404 34.3164 59.4928 34.3164 59.5453C34.3164 59.5977 34.3688 59.5977 34.4213 59.5977C34.4213 59.5977 34.4737 59.5977 34.4737 59.5453Z" fill="#00A736"/>
<path d="M33.8442 59.8077H33.8966C33.9491 59.8077 34.0015 59.7553 34.0015 59.7553V59.7028C34.0015 59.6504 33.8966 59.6504 33.8442 59.6504C33.7393 59.6504 33.6869 59.7553 33.7393 59.8077C33.7393 59.7553 33.7918 59.8077 33.8442 59.8077Z" fill="#00A736"/>
<path d="M33.3204 59.8604C33.3728 59.8604 33.4253 59.8604 33.4253 59.808C33.4777 59.808 33.4777 59.7556 33.4777 59.7556C33.4777 59.7556 33.4777 59.7031 33.4253 59.7031C33.3728 59.7031 33.3728 59.7031 33.3204 59.7031C33.2155 59.7031 33.1631 59.7556 33.1631 59.808V59.8604C33.2155 59.8604 33.268 59.8604 33.3204 59.8604Z" fill="#00A736"/>
<path d="M32.6912 59.5454C32.7436 59.5454 32.7436 59.5454 32.6912 59.5454C32.7961 59.5454 32.8485 59.4929 32.8485 59.4405C32.8485 59.3881 32.7961 59.3356 32.6912 59.2832C32.6912 59.2832 32.6912 59.2832 32.6388 59.2832C32.5863 59.2832 32.5339 59.2832 32.4814 59.3881V59.4405C32.6388 59.4929 32.6388 59.5454 32.6912 59.5454Z" fill="#00A736"/>
<path d="M32.1146 59.336C32.1671 59.336 32.1671 59.336 32.2195 59.336C32.2719 59.336 32.3244 59.336 32.3244 59.2835C32.3244 59.2311 32.2719 59.1262 32.2195 59.1262C32.1671 59.0738 32.0622 59.1262 32.0098 59.1786V59.2311C32.0098 59.2835 32.0622 59.336 32.1146 59.336Z" fill="#00A736"/>
<path d="M31.6947 59.0734C31.7472 59.0734 31.7472 59.0734 31.7996 59.021C31.852 58.9685 31.7996 58.8637 31.7472 58.8112C31.6947 58.7588 31.6947 58.7588 31.6423 58.7588C31.6423 58.7588 31.5898 58.7588 31.5898 58.8112V58.8637C31.5898 58.9161 31.6423 58.9685 31.6423 58.9685C31.5898 59.0734 31.6423 59.0734 31.6947 59.0734Z" fill="#00A736"/>
<path d="M35.3653 58.2869C35.3653 58.2345 35.4177 58.182 35.3653 58.1296C35.3653 58.1296 35.3653 58.0771 35.3128 58.0771C35.2604 58.0771 35.1555 58.0772 35.1555 58.182C35.1031 58.2345 35.1031 58.3393 35.1555 58.3918H35.208C35.2604 58.3918 35.3653 58.3393 35.3653 58.2869Z" fill="#00A736"/>
<path d="M34.8936 58.864C34.9461 58.864 34.9985 58.864 34.9985 58.8115C35.0509 58.7591 35.0509 58.7067 35.0509 58.6542C35.0509 58.6018 35.0509 58.6018 34.9985 58.6018C34.9461 58.5494 34.8412 58.6018 34.7888 58.6542C34.7363 58.7067 34.7363 58.8115 34.7363 58.864C34.8412 58.8115 34.8412 58.864 34.8936 58.864Z" fill="#00A736"/>
<path d="M34.4218 59.2312C34.4742 59.2312 34.4742 59.2312 34.5267 59.1788C34.5791 59.1788 34.5791 59.1263 34.6316 59.0739C34.6316 59.0214 34.6316 59.0215 34.6316 58.969C34.5791 58.9166 34.5267 58.9166 34.4218 58.969C34.3694 59.0215 34.3169 59.0739 34.3694 59.1263C34.3169 59.1788 34.3694 59.2312 34.4218 59.2312Z" fill="#00A736"/>
<path d="M33.8975 59.2305C33.845 59.2829 33.7402 59.3353 33.7926 59.3878C33.7926 59.4402 33.845 59.4402 33.8975 59.4402H33.9499C34.0024 59.4402 34.0548 59.3878 34.0548 59.3353V59.2829C34.0548 59.2305 33.9499 59.2305 33.8975 59.2305Z" fill="#00A736"/>
<path d="M33.3204 59.3359C33.2155 59.3359 33.1631 59.3884 33.1631 59.4408V59.4932C33.2155 59.5457 33.2155 59.5457 33.268 59.5457C33.3204 59.5457 33.3728 59.5457 33.3728 59.4932C33.3728 59.4932 33.4253 59.4408 33.3728 59.4408C33.4777 59.3884 33.3728 59.3359 33.3204 59.3359Z" fill="#00A736"/>
<path d="M46.3236 5.37908C44.8029 4.90716 43.6493 4.59255 42.4433 4.59255C40.6605 4.59255 39.0874 5.27421 37.2522 6.79485C36.4656 7.47652 35.2072 7.79113 33.5817 7.79113C31.222 7.79113 28.81 7.05703 28.0235 6.79485C28.0759 6.68998 28.0759 6.53267 28.0759 6.4278V5.27421C28.0759 5.22178 28.0759 5.22178 28.0759 5.16934C28.6002 4.69742 28.9149 4.01575 28.9149 3.22921C28.9149 1.81345 27.7088 0.607422 26.2406 0.607422C24.7724 0.607422 23.5664 1.81345 23.5664 3.28165C23.5664 4.01575 23.881 4.69742 24.4054 5.22178C24.4054 5.27421 24.4054 5.27421 24.4054 5.32665V6.48024C24.4054 6.79485 24.5103 7.10947 24.72 7.31921V57.0808V60.7513C25.2444 60.8562 25.7687 60.9086 26.3455 60.9086C26.8174 60.9086 27.2894 60.8562 27.7088 60.8038C27.7088 60.227 27.7088 58.9161 27.7088 57.0284C27.7088 47.2753 27.7088 23.5219 27.7088 23.4694C27.7088 23.6792 30.3306 23.5743 30.5928 23.5219C32.061 23.417 33.5292 23.1024 34.7877 22.3683C35.4693 21.9488 36.151 21.4245 36.6754 20.7952C37.9863 19.2221 38.8252 17.282 39.6118 15.3419C40.241 13.8213 40.8702 12.3531 41.7092 11.0946C42.9677 9.2069 44.1213 8.10575 46.4284 6.63754L47.6869 5.85101L46.3236 5.37908Z" fill="white"/>
<path d="M37.7239 7.26646C34.6826 9.78338 28.0232 7.4762 27.5513 7.3189C27.7611 8.10543 28.8098 15.4465 27.4465 21.7388L27.1318 22.4204C28.233 22.8923 30.8023 22.6826 31.2743 22.6302C33.2144 22.5253 34.9972 21.6339 36.2032 20.1657C38.458 17.4914 39.2445 13.4539 41.1846 10.5699C42.4955 8.62979 43.7016 7.4762 46.1136 5.90313C42.9675 4.95928 40.87 4.64467 37.7239 7.26646Z" fill="#BF0000"/>
<path d="M28.2328 3.1767C28.2328 4.27785 27.3414 5.11683 26.2927 5.11683C25.1915 5.11683 24.3525 4.22542 24.3525 3.1767C24.3525 2.07555 25.2439 1.23658 26.2927 1.23658C27.3414 1.18414 28.2328 2.07555 28.2328 3.1767Z" fill="#00A736"/>
<path d="M27.2373 2.07582C27.2373 2.39043 26.8178 2.65261 26.2935 2.65261C25.7691 2.65261 25.3496 2.39043 25.3496 2.07582C25.3496 1.7612 25.7691 1.49902 26.2935 1.49902C26.8178 1.49902 27.2373 1.7612 27.2373 2.07582Z" fill="white"/>
<path d="M26.8699 7.31934H25.6638C25.6114 7.31934 25.5065 7.31934 25.4541 7.31934V49.8448V60.332C25.559 60.332 25.6638 60.332 25.7687 60.332C25.9785 60.332 26.1882 60.332 26.3979 60.332C26.6601 60.332 26.8699 60.332 27.0796 60.2795V49.7924V7.31934C27.0272 7.31934 26.9223 7.31934 26.8699 7.31934Z" fill="#132D02"/>
<path d="M27.3934 6.37491C27.3934 6.68953 27.1312 6.89927 26.8691 6.89927H25.663C25.3484 6.89927 25.1387 6.63709 25.1387 6.37491V5.16889C25.1387 4.85427 25.4009 4.64453 25.663 4.64453H26.8691C27.1837 4.64453 27.3934 4.90671 27.3934 5.16889V6.37491Z" fill="#00A736"/>
<path d="M43.8064 6.32279C43.2296 6.21792 42.6528 6.21792 42.076 6.32279C40.87 6.53254 39.8213 7.26664 39.0347 8.26292C37.5141 10.203 36.6751 12.5102 35.4691 14.6601C34.8923 15.7088 34.2106 16.7051 33.3717 17.5965C32.7424 18.3306 31.9559 18.855 31.1169 19.3793C31.851 18.855 32.4278 17.9636 33.0046 17.2819C33.6863 16.4429 34.3155 15.4991 34.7874 14.5028C35.7313 12.5627 36.4129 10.7798 37.4616 8.89215C36.0983 9.57382 34.5777 9.67869 34.5777 9.73112C33.9484 11.042 33.529 12.4054 32.7949 13.7162C32.4278 14.3979 32.0083 15.0271 31.4315 15.6039C31.012 16.0234 30.5926 16.3905 30.1206 16.7575C30.5401 16.3905 30.8023 15.6564 31.1693 15.1845C31.6413 14.6077 31.9559 13.9784 32.2705 13.2968C32.7949 12.0907 33.0046 11.0945 33.4241 9.836C32.8473 9.836 32.4802 9.836 31.9034 9.78356C30.9072 9.67869 29.8584 9.36407 28.9146 8.99702C28.9146 8.99702 29.9109 15.2893 28.4951 21.1097C28.4951 21.2146 29.7536 21.3194 29.9109 21.3194C33.0046 21.4243 35.0496 19.5366 36.6227 17.0197C38.2482 14.2406 38.8774 10.8847 40.9748 8.42023C41.6565 7.63369 43.1772 6.06062 44.3832 6.4801C44.4356 6.4801 44.4356 6.4801 43.8064 6.32279Z" fill="white"/>
</g>
<defs>
<clipPath id="clip0_93_8264">
<rect width="56.3161" height="71.7847" fill="white" transform="translate(0.0751953 0.607422)"/>
</clipPath>
</defs>
</svg>
