<svg width="82" height="71" viewBox="0 0 82 71" fill="none" xmlns="http://www.w3.org/2000/svg">
<g clip-path="url(#clip0_93_8197)">
<path d="M72.0966 66.5462C72.3616 67.6062 71.6108 68.4453 71.3458 68.7103L71.3017 68.7544L71.2575 68.7986C70.9925 69.0636 70.1534 69.8143 69.0935 69.5494L68.9168 69.5052L68.7843 69.3727C68.5635 69.1077 67.4594 67.9153 67.1061 67.297L52.9738 52.8555C52.8854 52.7672 52.3555 52.2372 52.1346 51.4864L14.7722 14.0799L14.7281 14.124L11.8574 11.2976C11.5925 11.0326 10.7533 11.6067 10.2675 12.0042C10.0909 12.1367 9.9584 12.225 9.82591 12.3133C6.82278 14.3007 4.96791 15.4489 2.62724 15.8023C2.53891 15.8023 1.87646 15.8906 1.25817 15.3606C0.507387 14.7865 0.198242 13.8149 0.198242 12.4017C0.198242 11.1209 0.728206 9.796 1.61148 8.91273C1.6998 8.8244 1.74397 8.78024 1.8323 8.69191C2.93639 7.76448 4.43795 7.45533 5.85118 7.23451C6.072 7.19035 6.33698 7.14619 6.5578 7.14619C8.28018 6.88121 10.2234 6.61622 11.8574 7.67615C11.9458 7.72031 12.829 8.3386 16.1855 11.7392L16.6271 12.1808L16.5829 12.225L53.9895 49.5874C54.7403 49.8082 55.2261 50.3382 55.3586 50.4265L69.8001 64.5589C70.4184 64.9122 71.6108 66.0163 71.8758 66.2371L72.0083 66.3696L72.0966 66.5462Z" fill="white"/>
<path d="M14.4306 10.9329L13.4629 11.9014L55.6075 54.0102L56.5751 53.0417L14.4306 10.9329Z" fill="#132D02"/>
<path d="M71.4785 66.7225C71.6993 67.5616 70.8602 68.3124 70.8602 68.3124C70.8602 68.3124 70.1094 69.1515 69.2703 68.9307C69.2703 68.9307 67.9013 67.4291 67.6363 66.8991L53.4598 52.3693C53.4598 52.3693 52.7973 51.7069 52.709 50.9561L53.1065 50.5586L53.5039 50.1611C54.2989 50.2495 54.9172 50.9119 54.9172 50.9119L69.447 65.0884C69.977 65.3534 71.4785 66.7225 71.4785 66.7225Z" fill="#132D02"/>
<path d="M14.6838 13.2407L12.2548 10.8559C11.4598 10.1051 10.1791 11.2975 9.42831 11.7833C6.38102 13.8149 4.65864 14.8306 2.45046 15.1398C2.45046 15.1398 0.816406 15.4047 0.816406 12.4016C0.816406 11.2534 1.34637 9.92846 2.18548 9.22184C3.20124 8.33857 4.61448 8.11775 5.89522 7.94109C7.79426 7.67611 9.82578 7.19031 11.504 8.25024C11.504 8.25024 12.3431 8.7802 15.7437 12.225L14.6838 13.2407Z" fill="#00A736"/>
<path d="M2.05273 11.4299C4.08426 10.2816 6.29244 9.35418 8.58895 8.82422C6.55742 9.97247 4.30508 10.8999 2.05273 11.4299Z" fill="white"/>
<path d="M8.80965 9.75195C6.77813 10.9002 4.56995 11.8276 2.27344 12.3576C4.30496 11.2094 6.51314 10.3261 8.80965 9.75195Z" fill="white"/>
<path d="M2.75879 13.2404C4.79031 12.0922 6.9985 11.1647 9.295 10.6348C7.30764 11.783 5.0553 12.7105 2.75879 13.2404Z" fill="white"/>
<path d="M10.0021 66.5909C9.73709 67.6509 10.4879 68.49 10.7528 68.755L10.797 68.7991L10.8412 68.8433C11.1062 69.1083 11.9453 69.8591 13.0052 69.5941L13.1818 69.5499L13.3143 69.4174C13.5352 69.1524 14.6392 67.96 14.9926 67.3417L29.0807 52.9002C29.1691 52.8119 29.699 52.2819 29.9199 51.5312L67.3706 14.1687L67.4148 14.2129L70.2854 11.3864C70.5504 11.1215 71.3895 11.7397 71.8753 12.0931C72.0519 12.2255 72.1844 12.3139 72.3169 12.4022C75.32 14.3896 77.1749 15.5378 79.5598 15.8911C79.6481 15.8911 80.3105 15.9794 80.9288 15.4495C81.5913 14.8754 81.9004 13.9038 81.9004 12.4905C81.9004 11.2098 81.3705 9.88487 80.4872 9.0016C80.3989 8.91327 80.3547 8.86911 80.2664 8.78078C79.1623 7.85334 77.6607 7.5442 76.2475 7.32338C76.0267 7.27922 75.7617 7.23505 75.5409 7.23505C73.8185 6.97007 71.8753 6.70509 70.2412 7.76502C70.1529 7.80918 69.2696 8.42747 65.9132 11.8281L65.4716 12.2697L65.5157 12.3139L28.1091 49.7204C27.3584 49.9413 26.8284 50.4712 26.7401 50.5596L12.2986 64.6919C11.6803 65.0452 10.4879 66.1493 10.2229 66.3701L10.0904 66.5026L10.0021 66.5909Z" fill="white"/>
<path d="M67.6631 10.9918L25.5186 53.1006L26.4862 54.0691L68.6308 11.9602L67.6631 10.9918Z" fill="#132D02"/>
<path d="M10.62 66.7674C10.3992 67.6065 11.2383 68.3573 11.2383 68.3573C11.2383 68.3573 11.9891 69.1964 12.8282 68.9756C12.8282 68.9756 14.1973 67.474 14.4623 66.9441L28.6388 52.4142C28.6388 52.4142 29.3012 51.7518 29.3896 51.001L28.9921 50.6035L28.5946 50.2061C27.7997 50.2944 27.1814 50.9568 27.1814 50.9568L12.6516 65.1334C12.1216 65.3983 10.62 66.7674 10.62 66.7674Z" fill="#132D02"/>
<path d="M67.4144 13.2856L69.8434 10.9008C70.6384 10.15 71.9191 11.3425 72.6699 11.8283C75.7172 13.8598 77.4396 14.8755 79.6477 15.1847C79.6477 15.1847 81.2818 15.4497 81.2818 12.4465C81.2818 11.2983 80.7518 9.97338 79.9127 9.26676C78.897 8.38349 77.4837 8.16267 76.203 7.98602C74.3039 7.72103 72.2724 7.23524 70.5942 8.29516C70.5942 8.29516 69.7551 8.82512 66.3545 12.2699L67.4144 13.2856Z" fill="#00A736"/>
<path d="M73.5098 8.86914C75.7621 9.3991 78.0145 10.3265 80.046 11.4748C77.7936 10.9448 75.5413 10.0174 73.5098 8.86914Z" fill="white"/>
<path d="M79.8243 12.4465C77.572 11.8723 75.3196 10.9891 73.2881 9.84082C75.5846 10.3708 77.8369 11.2982 79.8243 12.4465Z" fill="white"/>
<path d="M72.8027 10.6797C75.0551 11.2097 77.3074 12.1371 79.3389 13.2853C77.0424 12.7554 74.8343 11.8279 72.8027 10.6797Z" fill="white"/>
<path d="M32.7469 70.9629L32.8793 69.638C33.1885 66.8115 34.6017 65.2658 36.2799 64.5591C36.1916 64.3825 36.1475 64.1617 36.1033 63.985C36.0591 63.4109 36.2799 62.9692 36.5449 62.7043C38.2231 60.4961 37.9582 56.9188 37.649 54.9315C36.4124 54.3132 35.6175 53.3857 35.4408 52.3258C35.0875 52.0608 34.7784 51.7959 34.4692 51.4867C34.4251 51.6192 34.3809 51.7075 34.2926 51.84C33.9393 52.5908 33.2768 53.0324 32.4819 53.0324C31.7311 53.0324 30.9803 52.635 30.5828 51.9725C30.1854 51.3101 30.097 50.5593 30.4503 49.8527C31.0686 48.4836 30.4945 47.6886 28.8605 46.0104L28.4188 45.5688C27.2706 44.3764 26.0781 43.0956 24.9741 41.8149C23.34 39.8717 21.0877 36.8686 20.5135 33.5563C19.9836 30.5973 20.4694 26.8876 23.3842 25.4302C24.3999 24.9002 25.504 24.6352 26.5198 24.6352C26.9614 24.6352 27.9772 24.8119 28.0213 24.8119C28.0213 24.5911 28.1538 23.3545 28.1538 23.3545H53.5037C53.5037 23.3545 53.6362 24.5911 53.6362 24.8119C53.6804 24.8119 53.7246 24.7677 53.8129 24.7677C54.2545 24.6794 54.6962 24.6352 55.1378 24.6352C56.1977 24.6352 57.2577 24.9002 58.2734 25.4302C61.1441 26.8876 61.6299 30.5973 61.1441 33.5563C60.5699 36.9127 58.3176 39.8717 56.6835 41.8149C55.5794 43.1398 54.387 44.3764 53.2388 45.5688L52.7971 46.0104C51.1631 47.7328 50.5889 48.4836 51.2072 49.8527C51.5164 50.5593 51.4722 51.3542 51.0747 51.9725C50.6331 52.635 49.9265 53.0324 49.1757 53.0324C48.3808 53.0324 47.7183 52.5908 47.365 51.84C47.3208 51.7075 47.2767 51.6192 47.1884 51.4867C46.8792 51.7959 46.5701 52.0608 46.2168 52.3258C46.0401 53.3857 45.2452 54.3573 44.0086 54.9315C43.6994 56.9188 43.4344 60.4961 45.1127 62.7043C45.3776 62.9692 45.6426 63.455 45.5543 63.985C45.5543 64.2058 45.466 64.3825 45.3776 64.5591C47.0559 65.2658 48.5133 66.8115 48.7782 69.638L48.9107 70.9629H32.7469ZM26.1223 28.9633C25.5923 28.9633 25.1507 29.0516 24.8857 30.1999C24.3999 32.1872 25.1507 34.5279 27.0497 37.2219C27.5797 37.9726 28.1538 38.6793 28.7721 39.3859C28.0655 35.8086 27.8889 32.1872 27.8889 29.3166C27.2706 29.1399 26.6081 28.9633 26.1223 28.9633ZM53.8571 29.3166C53.8571 32.1872 53.6804 35.8086 52.9738 39.3859C53.5921 38.6793 54.1662 37.9726 54.6962 37.2219C56.5952 34.5279 57.346 32.1872 56.8602 30.1999C56.5952 29.0516 56.1536 28.9633 55.6236 28.9633C55.1378 28.9633 54.5195 29.1399 53.8571 29.3166Z" fill="white"/>
<path d="M57.7874 26.402C56.6833 25.8278 55.3584 25.5629 54.1218 25.872C53.5918 26.0045 53.0619 26.1811 52.5761 26.402C52.5319 25.2095 52.4436 24.5029 52.4436 24.5029H40.8727H29.3018C29.3018 24.5029 29.2135 25.2095 29.1694 26.402C28.6836 26.1811 28.1536 26.0045 27.6236 25.872C26.387 25.5629 25.0621 25.8278 23.9581 26.402C21.5732 27.6385 21.3524 30.9508 21.7499 33.2473C22.2357 36.118 24.0905 38.7678 25.9454 40.976C27.0937 42.345 28.3302 43.6258 29.611 44.9507C31.1567 46.5406 32.7024 47.998 31.5984 50.3386C31.0684 51.4869 32.7466 52.4585 33.2766 51.3102C33.6299 50.5153 33.8507 49.7203 33.8949 48.9254C34.6898 49.9853 35.6172 50.9128 36.6772 51.6194C36.6772 51.6635 36.6772 51.7077 36.6772 51.7519C36.6772 52.7235 37.5163 53.5626 38.797 54.0042C39.2387 56.2124 39.7245 60.6729 37.5163 63.4552C37.5163 63.4552 36.633 64.1177 39.1503 65.3101C39.1503 65.3101 34.6456 64.6476 34.0715 69.7706H40.8727H47.6297C47.0998 64.6918 42.5509 65.3101 42.5509 65.3101C45.0683 64.1177 44.185 63.4552 44.185 63.4552C41.9768 60.6729 42.4626 56.2124 42.9042 54.0042C44.185 53.5626 45.0241 52.7235 45.0241 51.7519C45.0241 51.7077 45.0241 51.6635 45.0241 51.6194C46.084 50.8686 47.0115 49.9412 47.8064 48.9254C47.8506 49.7203 48.0714 50.5153 48.4247 51.3102C48.9547 52.4585 50.6329 51.4427 50.1029 50.3386C49.043 47.998 50.5887 46.5406 52.0903 44.9507C53.3269 43.6699 54.6076 42.345 55.7559 40.976C57.6107 38.7678 59.4214 36.1621 59.9514 33.2473C60.393 30.9508 60.2164 27.5944 57.7874 26.402ZM26.0337 37.9287C24.3997 35.6322 22.9865 32.7615 23.6931 29.9351C24.3997 26.9319 26.8729 27.6827 29.081 28.4777C29.0369 32.4082 29.3018 38.5028 31.1567 43.7141C29.3902 41.8592 27.5353 40.0485 26.0337 37.9287ZM30.8917 26.402H36.633C32.6141 33.6448 33.939 42.3892 36.103 46.9822C37.5163 50.0295 39.3712 51.1777 39.3712 51.1777C29.346 46.6289 30.8917 26.402 30.8917 26.402ZM37.7371 51.7519C38.6645 52.6793 40.0336 53.4301 40.0336 53.4301C36.8538 53.4743 37.7371 51.7519 37.7371 51.7519ZM37.2955 69.1082H35.5731C36.368 65.5751 39.7245 65.7517 39.7245 65.7517C37.6046 66.105 37.2955 69.1082 37.2955 69.1082ZM38.3112 63.8085C40.1661 62.6161 39.9894 56.2124 39.9894 56.2124C40.7402 61.4237 39.3712 63.5877 39.3712 63.5877C39.1945 64.5152 40.4311 65.2659 40.4311 65.2659C38.797 64.7801 38.3112 63.8085 38.3112 63.8085ZM41.9768 51.2219C41.9768 51.2219 49.4846 45.1715 50.8979 29.8909C50.942 29.8909 51.0303 49.6762 41.9768 51.2219ZM55.7117 37.9287C54.2101 40.0485 52.3553 41.8592 50.5887 43.7141C52.4436 38.5028 52.7086 32.3641 52.6644 28.4777C54.8726 27.6827 57.3457 26.9319 58.0524 29.9351C58.759 32.7615 57.3016 35.6322 55.7117 37.9287Z" fill="#00A736"/>
<path d="M41.0051 0.0361328C34.7339 0.0361328 29.6992 5.11495 29.6992 11.342C29.6992 17.5691 34.778 22.6479 41.0051 22.6479C47.2322 22.6479 52.311 17.5691 52.311 11.342C52.2668 5.11495 47.2322 0.0361328 41.0051 0.0361328Z" fill="white"/>
<path d="M50.6333 11.2986C50.6333 16.6424 46.3052 20.9262 41.0056 20.9262C35.6618 20.9262 31.3779 16.5982 31.3779 11.2986C31.3779 5.95477 35.706 1.6709 41.0056 1.6709C46.3052 1.6709 50.6333 5.95477 50.6333 11.2986Z" fill="white"/>
<path d="M41.0053 21.4559C35.3965 21.4559 30.8477 16.907 30.8477 11.2983C30.8477 5.68948 35.3965 1.14062 41.0053 1.14062C46.6141 1.14062 51.1629 5.68948 51.1629 11.2983C51.1188 16.907 46.5699 21.4559 41.0053 21.4559ZM41.0053 2.15639C35.9706 2.15639 31.8634 6.2636 31.8634 11.2983C31.8634 16.3329 35.9706 20.4401 41.0053 20.4401C46.0399 20.4401 50.1472 16.3329 50.1472 11.2983C50.103 6.2636 46.0399 2.15639 41.0053 2.15639Z" fill="#B3B3B3"/>
<path d="M49.1756 12.2246C48.8664 12.2246 48.9989 12.9312 48.9548 13.1079C48.8223 13.5495 48.6015 13.947 48.4248 14.3445C48.9106 14.212 49.3964 14.0795 49.5731 13.5054C49.6172 13.2845 49.6614 12.2246 49.1756 12.2246Z" fill="#B3B3B3"/>
<path d="M48.2035 15.096C47.8502 15.0518 47.8502 15.6701 47.6735 15.8909C47.4085 16.2443 47.0552 16.5092 46.7461 16.8184C47.3202 16.9067 47.806 16.8625 48.1593 16.3767C48.3801 16.0676 48.5568 15.361 48.2035 15.096Z" fill="#B3B3B3"/>
<path d="M46.2598 17.4366C45.9507 17.3483 45.7299 17.8783 45.509 18.0108C45.1116 18.2316 44.7141 18.3641 44.2725 18.5407C44.7583 18.8057 45.1557 18.9824 45.6857 18.7174C45.9948 18.4966 46.6131 17.8341 46.2598 17.4366Z" fill="#B3B3B3"/>
<path d="M43.522 18.8496C43.1687 18.9821 42.8595 19.1588 42.5062 19.2029C42.1529 19.2471 41.7996 19.2471 41.4463 19.2471C41.7996 19.7329 42.3296 20.0862 42.9479 19.8212C43.0803 19.7329 44.0961 18.9821 43.522 18.8496Z" fill="#B3B3B3"/>
<path d="M40.4747 19.2471C40.033 19.2471 39.6356 19.2912 39.2381 19.1146C38.9731 19.0263 38.7523 18.9379 38.4873 18.8496C38.7081 19.5121 39.1056 19.9979 39.8564 19.9095C40.1214 19.8654 40.3863 19.777 40.6072 19.5562C40.6955 19.4237 40.6955 19.2029 40.4747 19.2471Z" fill="#B3B3B3"/>
<path d="M37.6047 18.4967C37.163 18.3642 36.8539 18.2317 36.4564 17.9225C36.2356 17.7459 36.0589 17.5692 35.8823 17.3926C35.8381 18.0992 36.0148 18.7175 36.7656 18.8941C37.0305 18.9825 37.3397 18.9383 37.5605 18.8058C37.693 18.7617 37.7813 18.585 37.6047 18.4967Z" fill="#B3B3B3"/>
<path d="M35.1755 16.7739C34.8664 16.5089 34.6014 16.2881 34.3806 15.8906C34.2481 15.6257 34.1156 15.3607 33.9831 15.0957C33.7181 15.6698 33.6298 16.244 34.1156 16.7298C34.3364 16.9506 34.6897 17.0389 34.9989 17.0389C35.1755 17.0831 35.308 16.9064 35.1755 16.7739Z" fill="#B3B3B3"/>
<path d="M33.3644 14.08C33.0553 13.5501 33.0111 12.8876 32.967 12.3135C32.437 12.7993 32.1279 13.4617 32.6578 14.1242C32.967 14.4775 33.8061 14.8308 33.3644 14.08C33.4086 14.1683 33.2761 13.9034 33.3644 14.08Z" fill="#B3B3B3"/>
<path d="M32.7023 11.5629C33.0556 11.6071 32.7464 10.7238 32.7906 10.503C32.8348 10.1055 32.9673 9.70802 33.0556 9.31055C32.6139 9.53136 32.1281 9.75218 32.084 10.3263C32.084 10.6796 32.2165 11.5629 32.7023 11.5629Z" fill="#B3B3B3"/>
<path d="M47.8945 6.88131C48.2919 7.36711 48.4244 7.94123 48.6011 8.55952C48.9986 7.9854 49.1752 7.23462 48.5569 6.70465C48.3803 6.528 48.0711 6.39551 47.8061 6.39551C47.5412 6.39551 47.8061 6.74882 47.8945 6.88131C47.9386 6.92547 47.8503 6.79298 47.8945 6.88131Z" fill="#B3B3B3"/>
<path d="M48.8662 9.35479C49.1754 10.0614 49.087 10.7239 49.087 11.4305C49.5287 11.1213 49.9261 10.7239 49.7936 10.1497C49.7495 9.79642 49.5728 9.53144 49.3078 9.31062C49.1754 9.2223 48.9545 9.08981 48.8662 9.35479Z" fill="#B3B3B3"/>
<path d="M39.1055 18.099C39.2822 17.7898 38.3106 17.7457 38.1339 17.6574C37.7806 17.4807 37.4715 17.2157 37.1182 17.0391C37.1623 17.4807 37.2065 17.9665 37.6481 18.2315C37.9573 18.4081 38.8847 18.5848 39.1055 18.099Z" fill="#B3B3B3"/>
<path d="M36.1914 16.9506C36.3239 16.9506 36.5889 16.9506 36.633 16.7739C36.6772 16.5973 36.368 16.5089 36.2797 16.4206C35.7939 16.1115 35.5289 15.5373 35.1756 15.0957C35.0873 15.4048 34.9548 15.714 35.0873 16.0673C35.2198 16.5973 35.7056 16.9506 36.1914 16.9506Z" fill="#B3B3B3"/>
<path d="M34.1591 14.5662C34.2474 14.6546 34.689 14.8312 34.8215 14.7429C35.0424 14.5662 34.5566 14.1246 34.4682 14.0363C34.2474 13.6388 34.2032 13.0647 34.1149 12.623C33.9383 12.8439 33.7174 13.0205 33.6733 13.2855C33.5408 13.7713 33.7616 14.3013 34.1591 14.5662C34.2032 14.6104 33.9383 14.4338 34.1591 14.5662Z" fill="#B3B3B3"/>
<path d="M48.071 11.6074C48.0268 11.8724 47.9826 12.1816 47.9385 12.4466C48.2035 12.3141 48.5126 12.1816 48.6893 11.8724C48.9101 11.5191 48.9542 10.9008 48.6451 10.5475C48.5126 10.3709 48.2035 10.0617 48.0268 10.3267C47.9826 10.415 48.071 10.6358 48.1151 10.7683C48.1151 11.0333 48.1151 11.2983 48.071 11.6074Z" fill="#B3B3B3"/>
<path d="M47.4089 14.1687C47.2322 14.4337 47.0556 14.6987 46.8789 15.0078C47.2322 14.9637 47.5414 14.9637 47.8063 14.7428C48.1597 14.4779 48.3363 13.9479 48.2038 13.5063C48.1597 13.3296 47.983 12.9321 47.7622 13.0646C47.6297 13.153 47.6739 13.3738 47.6739 13.5063C47.6297 13.7271 47.5414 13.9479 47.4089 14.1687Z" fill="#B3B3B3"/>
<path d="M46.4811 15.5379C46.2602 15.847 46.1277 16.1561 45.8186 16.377C45.5536 16.5978 45.2445 16.7744 44.9795 16.9511C45.5536 17.1277 46.1277 17.1719 46.5694 16.6419C46.6577 16.4653 47.011 15.317 46.4811 15.5379Z" fill="#B3B3B3"/>
<path d="M44.4053 17.967C44.4937 17.8346 44.6262 17.5254 44.5378 17.3488C44.4053 17.0838 43.9637 17.5696 43.8312 17.6579C43.4337 17.8787 42.8596 17.9229 42.418 18.0112C43.0363 18.5853 43.8754 18.762 44.4053 17.967Z" fill="#B3B3B3"/>
<path d="M41.8879 18.3204C41.8879 18.1879 41.7995 18.1438 41.667 18.1438C41.4021 18.2321 41.1371 18.2763 40.8279 18.2763C40.4305 18.2763 40.033 18.1438 39.6797 18.0996C39.9005 18.4971 40.1213 18.8504 40.6071 18.9829C40.9604 19.027 41.8879 18.8504 41.8879 18.3204Z" fill="#B3B3B3"/>
<path d="M38.7086 17.3477C39.0177 17.701 39.5477 17.8335 39.9893 17.6568C40.2101 17.5685 40.5634 17.3477 40.3868 17.1269C40.2543 16.9944 39.6802 17.1269 39.4593 17.0385C39.106 16.906 38.7527 16.7294 38.3994 16.5527C38.4877 16.8177 38.5319 17.0827 38.7086 17.3477C38.7969 17.3918 38.5761 17.171 38.7086 17.3477Z" fill="#B3B3B3"/>
<path d="M36.8541 16.4646C37.0749 16.6854 37.384 16.7737 37.6932 16.7737C37.914 16.7737 38.2673 16.6854 38.179 16.4204C38.1348 16.2437 37.5165 16.1112 37.3399 15.9788C37.0307 15.7579 36.8099 15.4046 36.5449 15.1396C36.4566 15.6254 36.4124 16.1112 36.8541 16.4646C37.0749 16.6412 36.6774 16.3321 36.8541 16.4646Z" fill="#B3B3B3"/>
<path d="M47.1875 13.4178C47.5408 13.1087 47.6733 12.5345 47.4967 12.0929C47.4525 11.9604 47.1875 11.5188 47.0109 11.6954C46.7901 11.8721 46.9667 12.3579 46.8784 12.667C46.7459 13.0203 46.5692 13.3736 46.3926 13.7269C46.6576 13.6386 46.9225 13.5945 47.1875 13.4178C47.2317 13.3736 47.0109 13.5503 47.1875 13.4178Z" fill="#B3B3B3"/>
<path d="M45.5095 15.6696C46.0394 15.6696 46.4369 15.2722 46.5694 14.7864C46.6135 14.6097 46.6577 13.9473 46.3927 13.9473C46.0836 13.9473 46.0836 14.4772 45.9069 14.698C45.6419 15.0514 45.2886 15.2722 44.9795 15.5813C45.1561 15.6255 45.3328 15.6696 45.5095 15.6696Z" fill="#B3B3B3"/>
<path d="M43.743 17.1279C44.1846 17.1279 44.6262 16.907 44.8029 16.5096C44.8912 16.2888 45.0679 15.7588 44.7587 15.7588C44.6262 15.7588 44.4937 15.9796 44.4496 16.0679C44.2729 16.2446 44.0963 16.3771 43.8755 16.4654C43.5663 16.5537 43.3013 16.6862 42.9922 16.7746C43.213 16.9512 43.4338 17.0837 43.743 17.1279Z" fill="#B3B3B3"/>
<path d="M41.2694 17.7457C41.6669 17.9223 42.241 17.8782 42.5943 17.5249C42.771 17.3924 43.036 16.9949 42.7268 16.8624C42.5944 16.8182 42.4177 16.9507 42.3294 16.9949C42.1086 17.0832 41.8877 17.1274 41.6669 17.1274C41.3578 17.1274 41.0486 17.0832 40.6953 17.0832C40.8278 17.3482 41.0045 17.6132 41.2694 17.7457C41.4461 17.7898 41.0928 17.6573 41.2694 17.7457Z" fill="#B3B3B3"/>
</g>
<defs>
<clipPath id="clip0_93_8197">
<rect width="81.7027" height="70.9268" fill="white" transform="translate(0.198242 0.0361328)"/>
</clipPath>
</defs>
</svg>
