<svg width="76" height="71" viewBox="0 0 76 71" fill="none" xmlns="http://www.w3.org/2000/svg">
<g clip-path="url(#clip0_93_8129)">
<path d="M16.3547 16.5354L16.4712 16.4188C16.8208 16.1275 16.8208 15.6031 16.5294 15.2535L4.29366 1.09497C3.47794 0.162716 2.07956 0.0461847 1.14731 0.861904C0.215061 1.67762 0.0985296 3.13427 0.914249 4.06652L13.15 18.2251C13.4414 18.5747 13.9658 18.5747 14.3154 18.2833L14.4319 18.2251L20.6663 25.45C21.1324 24.6926 21.7151 23.9934 22.2977 23.2942L16.3547 16.5354ZM26.7259 54.6994L18.5687 64.1967C18.5687 64.1967 9.12971 56.156 7.09041 56.0395C4.46845 55.923 -0.71719 62.8566 0.564655 64.8376C2.25436 67.5178 11.8099 70.9555 15.1893 70.6059C16.9956 70.4311 20.5498 65.8864 20.5498 65.8864L29.0566 55.9812C28.2408 55.6316 27.4834 55.1655 26.7259 54.6994ZM12.2761 68.3918C11.8682 68.9745 3.711 64.1967 4.17713 63.381C4.64325 62.5652 12.8004 67.5761 12.2761 68.3918ZM14.6067 66.8769C14.0823 67.5761 3.65274 61.5165 4.29366 60.4677C4.93458 59.4189 15.3059 65.8864 14.6067 66.8769ZM14.7232 63.9636C14.3154 64.5463 6.15816 59.7685 6.62428 58.9528C7.09041 58.1371 15.2476 63.2062 14.7232 63.9636ZM74.8534 0.861904C73.9211 0.0461847 72.4645 0.162716 71.6488 1.09497L59.413 15.2535C59.1217 15.6031 59.1799 16.1275 59.4712 16.4188L59.5878 16.5354L53.7612 23.3525C54.3439 24.0516 54.8683 24.7508 55.3927 25.5083L61.6271 18.2833L61.7436 18.3416C62.0932 18.6329 62.6176 18.5747 62.9089 18.2833L75.1447 4.12478C75.9022 3.13427 75.7856 1.73589 74.8534 0.861904ZM68.9103 56.0395C66.871 56.156 57.4319 64.1967 57.4319 64.1967L49.2748 54.6994C48.5173 55.1655 47.7598 55.6316 46.9441 55.9812L55.4509 65.8864C55.4509 65.8864 59.0051 70.4311 60.8114 70.6059C64.1908 70.9555 73.8046 67.4596 75.436 64.8376C76.7179 62.7983 71.5322 55.8647 68.9103 56.0395ZM69.3181 58.9528C69.7843 59.7685 61.6271 64.5463 61.2192 63.9636C60.7531 63.2062 68.852 58.1371 69.3181 58.9528ZM61.394 66.8769C60.6948 65.8864 71.0661 59.4189 71.707 60.4677C72.2897 61.4582 61.9184 67.5761 61.394 66.8769ZM63.7246 68.3918C63.2003 67.6344 71.2992 62.5652 71.8236 63.381C72.2897 64.1384 64.1325 68.9162 63.7246 68.3918Z" fill="#00A736"/>
<path d="M37.9699 19.4492C28.2396 19.4492 20.3154 27.3733 20.3154 37.1037C20.3154 46.8341 28.2396 54.7582 37.9699 54.7582C47.7003 54.7582 55.6244 46.8341 55.6244 37.1037C55.6244 27.3733 47.7586 19.4492 37.9699 19.4492ZM49.3317 27.082C50.497 27.4899 51.5458 28.5969 51.8372 29.704C52.1867 30.9858 51.6041 32.1511 50.2057 32.1511C48.3995 32.1511 46.5932 30.4032 46.5932 28.6552C46.5932 27.1403 47.9334 26.6159 49.3317 27.082ZM42.2816 21.9546C43.5634 22.0712 44.6705 22.8286 44.9035 23.6443C45.1366 24.5766 44.2626 25.3923 42.806 25.3923C41.1745 25.3923 39.7179 24.4018 39.7179 23.353C39.6596 22.4208 40.8832 21.8381 42.2816 21.9546ZM41.7572 26.9655C43.0973 27.1986 44.3209 28.4221 44.5539 29.7622C44.8453 31.2771 43.8548 32.6173 42.2816 32.6173C40.5336 32.6173 38.9604 31.0441 38.9604 29.2961C38.9604 27.7229 40.2423 26.7324 41.7572 26.9655ZM31.5024 23.7026C31.7355 22.8869 32.8425 22.1294 34.1244 22.0129C35.5228 21.8381 36.6881 22.4208 36.6881 23.4113C36.6881 24.4601 35.2314 25.4506 33.6 25.4506C32.1434 25.3923 31.2694 24.5766 31.5024 23.7026ZM31.3276 29.8205C31.5607 28.4221 32.7843 27.2568 34.1244 27.0238C35.581 26.7907 36.9211 27.7229 36.9211 29.2961C36.9211 31.0441 35.348 32.6173 33.6 32.6173C31.9686 32.6173 31.0363 31.2771 31.3276 29.8205ZM24.5688 29.704C24.9184 28.5969 25.9672 27.4899 27.0742 27.082C28.4726 26.6159 29.8127 27.1403 29.8127 28.5969C29.8127 30.3449 28.0065 32.0929 26.2003 32.0929C24.8019 32.1511 24.2192 30.9858 24.5688 29.704ZM21.7721 36.9872C21.7721 35.2975 22.7043 33.9574 23.8114 33.9574C24.9767 33.9574 25.8507 35.2975 25.8507 36.9872C25.8507 38.6769 24.9184 40.017 23.8114 40.017C22.7043 40.017 21.7721 38.6769 21.7721 36.9872ZM27.0742 46.6593C25.9089 46.2514 24.8602 45.1444 24.5688 44.0373C24.2192 42.7555 24.8019 41.5902 26.2003 41.5902C28.0065 41.5902 29.8127 43.3381 29.8127 45.0861C29.8127 46.601 28.4726 47.1837 27.0742 46.6593ZM27.3073 36.9872C27.3073 35.2975 28.4726 33.9574 29.9293 33.9574C31.3859 33.9574 32.5512 35.2975 32.5512 36.9872C32.5512 38.6769 31.3859 40.017 29.9293 40.017C28.5309 40.017 27.3073 38.6769 27.3073 36.9872ZM34.1244 52.1945C32.8425 52.078 31.7355 51.3205 31.5024 50.5048C31.2694 49.5726 32.1434 48.7568 33.6 48.7568C35.2314 48.7568 36.6881 49.7474 36.6881 50.7961C36.6881 51.7284 35.4645 52.3111 34.1244 52.1945ZM34.1244 46.9506C32.7843 46.7175 31.5607 45.494 31.3276 44.1539C31.0363 42.639 32.0268 41.2988 33.6 41.2988C35.348 41.2988 36.9211 42.872 36.9211 44.62C36.9211 46.2514 35.581 47.1837 34.1244 46.9506ZM37.9117 40.017C36.222 40.017 34.8818 38.6769 34.8818 36.9872C34.8818 35.2975 36.222 33.9574 37.9117 33.9574C39.6014 33.9574 40.9415 35.2975 40.9415 36.9872C40.9997 38.6769 39.6014 40.017 37.9117 40.017ZM38.9604 44.62C38.9604 42.872 40.5336 41.2988 42.2816 41.2988C43.8548 41.2988 44.8453 42.639 44.5539 44.1539C44.3209 45.5522 43.0973 46.7175 41.7572 46.9506C40.2423 47.1837 38.9604 46.2514 38.9604 44.62ZM44.8453 50.4466C44.6122 51.3205 43.5052 52.0197 42.2816 52.1945C40.8832 52.3693 39.7179 51.7867 39.7179 50.7961C39.7179 49.7474 41.1745 48.7568 42.806 48.7568C44.2044 48.7568 45.0783 49.5726 44.8453 50.4466ZM43.2721 36.9872C43.2721 35.2975 44.4374 33.9574 45.8941 33.9574C47.3507 33.9574 48.516 35.2975 48.516 36.9872C48.516 38.6769 47.3507 40.017 45.8941 40.017C44.4374 40.017 43.2721 38.6769 43.2721 36.9872ZM51.8372 44.0373C51.4876 45.1444 50.4388 46.2514 49.3317 46.6593C47.9334 47.1254 46.5932 46.601 46.5932 45.1444C46.5932 43.3964 48.3995 41.6484 50.2057 41.6484C51.6041 41.6484 52.245 42.8137 51.8372 44.0373ZM52.1285 40.017C50.9632 40.017 50.0892 38.6769 50.0892 36.9872C50.0892 35.2975 51.0214 33.9574 52.1285 33.9574C53.2938 33.9574 54.1678 35.2975 54.1678 36.9872C54.1678 38.6769 53.2938 40.017 52.1285 40.017Z" fill="#00A736"/>
<path d="M42.8642 13.3888L37.9699 8.90234L33.0756 13.3888L27.5986 10.2425L29.871 17.817C32.3764 16.7682 35.1149 16.1856 38.0282 16.1856C40.9415 16.1856 43.68 16.7682 46.1854 17.817L48.3412 10.1842L42.8642 13.3888ZM37.9117 15.2533C37.0377 15.2533 36.2802 14.5541 36.2802 13.6219C36.2802 12.6896 36.9794 11.9904 37.9117 11.9904C38.7856 11.9904 39.5431 12.6896 39.5431 13.6219C39.5431 14.5541 38.8439 15.2533 37.9117 15.2533Z" fill="#00A736"/>
</g>
<defs>
<clipPath id="clip0_93_8129">
<rect width="75.3375" height="70.3267" fill="white" transform="translate(0.331055 0.336914)"/>
</clipPath>
</defs>
</svg>
