<svg width="47" height="69" viewBox="0 0 47 69" fill="none" xmlns="http://www.w3.org/2000/svg">
<g clip-path="url(#clip0_93_8138)">
<path d="M17.1619 68.6145C14.8649 68.6145 14.95 65.4668 14.7373 63.8504C14.3545 60.9578 13.9291 58.1079 13.5462 55.2153C13.2485 53.0885 12.9507 50.9191 12.653 48.7922C12.6104 48.4944 12.653 48.537 12.3552 48.3668C11.547 47.8564 11.2492 47.0056 11.2492 46.0698C11.2492 44.8788 11.0366 43.4325 11.3768 42.284C11.6746 41.3057 12.6104 40.6676 13.6313 40.6676C14.2268 40.6676 14.8224 40.9228 15.3753 41.0079C16.141 41.178 16.9492 41.2206 17.7574 41.1355C18.9485 41.0504 20.1821 40.3698 21.3731 40.7527C22.394 41.093 22.9044 42.1139 22.9044 43.1348C22.9044 44.2407 22.9895 45.3467 22.9044 46.4527C22.8619 46.9206 22.6917 47.431 22.394 47.8138C22.3089 47.9415 21.5432 48.4094 21.5432 48.4519C21.5007 48.6221 21.5007 48.7922 21.4582 48.9624C20.8201 54.0668 20.1395 59.2138 19.5015 64.3183C19.2888 65.9347 19.3738 68.6145 17.1619 68.6145Z" fill="white"/>
<path d="M19.7988 42.0287C18.0123 42.5816 16.0981 42.5816 14.3115 42.0287C13.2481 41.6884 12.4824 42.0287 12.4824 43.1346C12.4824 44.1555 12.4824 45.1339 12.4824 46.1548C12.4824 47.048 12.9929 47.4734 13.716 47.3883L16.3533 66.5726C16.3533 66.998 16.6936 67.3383 17.119 67.3383C17.5444 67.3383 17.8846 66.998 17.8846 66.5726L20.3093 47.3883C21.0749 47.4309 21.5854 47.048 21.5429 46.1548C21.5429 45.1339 21.5429 44.1555 21.5429 43.1346C21.6279 42.0712 20.8197 41.6884 19.7988 42.0287Z" fill="#00A736"/>
<path d="M17.0341 66.0201C16.7788 61.4261 16.2258 56.8746 15.5878 52.3231C15.4602 51.2597 15.29 50.1537 15.1199 49.0903C15.0348 48.4097 14.9072 47.6866 14.7796 47.006C14.6945 46.453 14.7796 46.6232 14.3542 46.4105C13.1206 45.9851 13.5885 43.7732 13.8012 42.8799C13.2908 44.1135 12.8229 46.1552 14.3117 46.8358C14.9497 53.259 15.7579 59.7246 17.0341 66.0201Z" fill="white"/>
<path d="M43.4497 0.384766L33.1982 12.8056L35.9632 15.0601L46.2997 2.42655L43.4497 0.384766Z" fill="#132D02"/>
<path d="M36.0488 9.10449L30.4339 15.8254C28.5622 17.9948 24.9891 15.2724 22.9048 14.1664C14.5675 9.78508 9.93093 7.57315 4.23095 7.31793C4.23095 7.31793 0.0197631 7.02016 0.785433 14.7619C1.08319 17.697 2.69961 20.9298 5.12423 22.5888C7.93169 24.5455 11.5473 24.8433 14.9078 24.9709C19.7996 25.141 25.2018 25.9067 29.2003 22.7164C29.2003 22.7164 31.1995 21.1851 39.0264 11.5291L36.0488 9.10449Z" fill="#00A736"/>
<path d="M8.14453 17.3994L8.5699 18.6755L20.2676 23.0994C21.1609 23.0994 22.0542 23.0569 22.9049 22.9718L8.14453 17.3994Z" fill="white"/>
<path d="M7.25098 14.6768L7.67635 15.9529L25.1591 22.5461L24.7763 21.3126L7.25098 14.6768Z" fill="white"/>
<path d="M23.5425 17.2291L23.4149 16.7612C23.4149 16.7612 16.0985 12.1246 5.5918 9.4873L5.93209 10.5933L23.5425 17.2291Z" fill="white"/>
<path d="M9.03711 20.0791L9.59009 21.8657C9.59009 21.8657 12.6528 22.5463 16.396 22.8866L9.03711 20.0791Z" fill="white"/>
<path d="M6.40039 11.9971L6.78323 13.2307L24.3511 19.8665L23.9683 18.6754L6.40039 11.9971Z" fill="white"/>
<path d="M38.1753 13.2308C37.9626 13.5285 37.5372 13.5711 37.2395 13.3158L34.6872 11.2315C34.3895 11.0188 34.3469 10.5935 34.6022 10.2957L37.0693 7.31809C37.282 7.02033 37.7074 6.97779 38.0051 7.23301L40.5574 9.31734C40.8551 9.53002 40.8977 9.9554 40.6424 10.2532L38.1753 13.2308Z" fill="#00A736"/>
<path d="M36.6445 12.8481C35.3684 14.2093 34.0498 15.6131 32.7737 16.9742C31.7953 17.9951 30.8595 19.0586 29.8811 20.0795C29.158 20.8026 28.1796 21.8235 27.1162 21.9511C28.1371 21.6959 34.6453 13.6563 35.7513 12.125C36.1766 12.4653 36.1766 12.4653 36.6445 12.8481Z" fill="white"/>
<path d="M2.82736 9.87012C2.95498 12.1246 3.16766 14.5492 3.97587 16.6761C4.82661 18.9305 6.01766 20.632 7.59153 22.4186C3.12513 20.3343 1.08334 14.4641 2.82736 9.87012Z" fill="white"/>
<path d="M17.0348 41.6458C10.1012 41.6458 4.48633 35.9883 4.48633 29.0973C4.48633 22.1637 10.1012 16.5488 17.0348 16.5488C23.9684 16.5488 29.5833 22.1637 29.5833 29.0973C29.5833 35.9883 23.9684 41.6458 17.0348 41.6458Z" fill="white"/>
<path d="M27.7121 29.0977C27.7121 34.9679 22.9479 39.7746 17.0352 39.7746C11.1651 39.7746 6.3584 35.0104 6.3584 29.0977C6.3584 23.2276 11.1226 18.4209 17.0352 18.4209C22.9479 18.4209 27.7121 23.1851 27.7121 29.0977Z" fill="white"/>
<path d="M17.0355 40.2853C10.8676 40.2853 5.80566 35.2659 5.80566 29.098C5.80566 22.9301 10.8251 17.8682 17.0355 17.8682C23.2034 17.8682 28.2653 22.8876 28.2653 29.098C28.2653 35.2659 23.2459 40.2853 17.0355 40.2853ZM17.0355 18.9741C11.4631 18.9741 6.91163 23.5256 6.91163 29.098C6.91163 34.6704 11.4631 39.2218 17.0355 39.2218C22.6079 39.2218 27.1593 34.6704 27.1593 29.098C27.1593 23.5256 22.6079 18.9741 17.0355 18.9741Z" fill="#00A736"/>
<path d="M26.0532 30.7559C25.8405 30.7559 25.8831 31.479 25.8405 31.6491C25.7129 32.032 25.5002 32.3723 25.3301 32.7551C25.798 32.67 26.1383 32.4573 26.3084 32.032C26.3935 31.7768 26.436 31.479 26.3084 31.1812C26.3084 31.0536 26.2234 30.7559 26.0532 30.7559Z" fill="#00A736"/>
<path d="M24.7344 34.0742C24.6067 34.0742 24.6067 34.1168 24.5217 34.2444C24.3941 34.4571 24.309 34.7123 24.0963 34.925C23.8411 35.1802 23.5433 35.4354 23.2881 35.6906C23.7985 35.7757 24.2664 35.6906 24.6067 35.2653C24.7769 35.01 25.0321 34.3294 24.7344 34.0742Z" fill="#00A736"/>
<path d="M22.2247 36.6265C22.0971 36.584 22.012 36.6691 21.9695 36.7542C21.7994 36.9243 21.6292 37.0945 21.374 37.1795C21.0337 37.3071 20.6508 37.4348 20.3105 37.5624C20.7359 37.8601 21.2038 37.9452 21.6717 37.69C21.8844 37.5198 22.4374 36.9243 22.2247 36.6265Z" fill="#00A736"/>
<path d="M18.8641 37.9883C18.5663 38.0734 18.2685 38.201 17.9282 38.201C17.5454 38.201 17.2051 38.1584 16.8223 38.1584C17.12 38.5838 17.5454 38.8816 18.0984 38.7539C18.3536 38.7114 18.6088 38.5413 18.779 38.3711C18.8641 38.286 19.0767 38.0308 18.8641 37.9883Z" fill="#00A736"/>
<path d="M15.2486 37.9881C14.8232 37.9456 14.4829 37.903 14.1001 37.7329C13.8449 37.6053 13.6322 37.4777 13.377 37.3926C13.5046 37.9456 13.8023 38.4135 14.4404 38.456C14.6956 38.4985 14.9508 38.4135 15.2061 38.2859C15.2911 38.2433 15.5038 37.9881 15.2486 37.9881Z" fill="#00A736"/>
<path d="M11.9733 36.6267C11.5904 36.414 11.2927 36.2864 11.0375 35.9461C10.8673 35.7334 10.6546 35.5207 10.4845 35.3506C10.3994 35.9461 10.527 36.5416 11.1651 36.7969C11.4203 36.8819 11.7181 36.967 11.9733 36.8394C12.0583 36.7969 12.1009 36.6692 11.9733 36.6267Z" fill="#00A736"/>
<path d="M9.29324 33.904C8.9104 33.436 8.78279 32.8831 8.5701 32.3301C8.22981 32.8405 8.14473 33.436 8.61264 33.904C8.78279 34.1166 9.03801 34.2443 9.33577 34.2868C9.67607 34.3719 9.37831 33.989 9.29324 33.904C9.37831 33.989 9.16563 33.7763 9.29324 33.904Z" fill="#00A736"/>
<path d="M8.05973 30.5858C7.84704 30.0328 7.97466 29.4373 7.97466 28.8418C7.46421 29.1821 7.16645 29.7351 7.46421 30.3731C7.54928 30.5858 7.76197 30.841 7.97466 30.9261C8.22988 31.1388 8.10227 30.7134 8.05973 30.5858C8.05973 30.6709 7.97466 30.4157 8.05973 30.5858Z" fill="#00A736"/>
<path d="M26.0106 27.5656C26.2233 28.1186 26.0957 28.7141 26.0957 29.3097C26.6062 28.9694 26.9039 28.4164 26.6062 27.7783C26.5211 27.5656 26.3084 27.3104 26.0957 27.2253C25.8405 27.0552 26.0106 27.4806 26.0106 27.5656C26.0957 27.7783 26.0106 27.4806 26.0106 27.5656Z" fill="#00A736"/>
<path d="M17.2477 36.7114C17.2903 36.4562 16.5246 36.6689 16.397 36.6689C16.0141 36.5838 15.6313 36.4562 15.291 36.3711C15.4612 36.7965 15.6739 37.1368 16.1418 37.2218C16.397 37.2644 16.6947 37.2644 16.9074 37.0942C16.9925 37.0092 17.2477 36.839 17.2477 36.7114Z" fill="#00A736"/>
<path d="M13.4622 36.2435C13.5898 36.2435 13.8875 36.2009 13.9726 36.0733C14.0577 35.9032 13.7599 35.8606 13.6323 35.8606C13.0793 35.6905 12.739 35.3076 12.3137 34.9248C12.2711 35.2226 12.2711 35.5203 12.4413 35.7755C12.654 36.0733 13.0368 36.2435 13.4622 36.2435Z" fill="#00A736"/>
<path d="M11.1227 34.0317C11.5907 34.0317 10.8675 33.5212 10.825 33.4362C10.5698 33.0959 10.4421 32.628 10.2295 32.2451C10.0168 32.5854 9.88917 32.9682 10.0593 33.3511C10.272 33.7765 10.6548 34.0317 11.1227 34.0317Z" fill="#00A736"/>
<path d="M9.67657 30.5861C9.46389 30.0757 9.54896 29.5227 9.5915 28.9697C9.12359 29.2675 8.78329 29.7779 9.03852 30.3309C9.12359 30.5861 9.33628 30.7988 9.5915 30.9264C9.84672 31.1391 9.71911 30.7563 9.67657 30.5861C9.67657 30.6712 9.5915 30.416 9.67657 30.5861Z" fill="#00A736"/>
<path d="M24.4367 27.1833C24.1389 27.1407 24.5218 27.9489 24.5643 28.034C24.6068 28.4168 24.5643 28.7997 24.5218 29.1825C24.8621 28.9698 25.1173 28.7146 25.1598 28.2467C25.1598 27.9489 25.0748 27.6512 24.8621 27.4385C24.777 27.3534 24.5643 27.1833 24.4367 27.1833Z" fill="#00A736"/>
<path d="M24.7342 31.7774C24.8618 31.4796 24.8618 31.1818 24.7342 30.8841C24.6917 30.7565 24.5215 30.4162 24.3514 30.6289C24.3088 30.6714 24.3514 30.9266 24.3514 31.0117C24.3514 31.2244 24.2663 31.3945 24.1812 31.5647C24.0536 31.8624 23.8835 32.1177 23.7559 32.4154C24.1812 32.3729 24.5641 32.2027 24.7342 31.7774C24.8618 31.5221 24.6066 32.1177 24.7342 31.7774Z" fill="#00A736"/>
<path d="M23.1181 33.6491C22.9905 33.6065 22.948 33.7341 22.9055 33.8192C22.7778 34.0319 22.6928 34.2446 22.5226 34.3722C22.2674 34.6274 21.9696 34.7976 21.6719 35.0103C22.1823 35.1804 22.6502 35.1379 22.9905 34.7125C23.1181 34.4998 23.3734 33.8618 23.1181 33.6491Z" fill="#00A736"/>
<path d="M20.3954 36.3714C20.4805 36.2438 20.6081 36.0311 20.5655 35.861C20.523 35.6483 20.1827 35.9461 20.1402 35.9886C19.6723 36.2864 19.1618 36.2864 18.6514 36.414C18.8641 36.6267 19.0767 36.7968 19.417 36.7968C19.7573 36.8819 20.1402 36.6692 20.3954 36.3714Z" fill="#00A736"/>
<path d="M14.1853 35.0527C14.483 35.2228 14.8233 35.2654 15.1636 35.1378C15.2487 35.0952 15.6741 34.84 15.3338 34.7975C14.9084 34.7549 14.6106 34.6699 14.2703 34.4146C14.0576 34.287 13.8875 34.1169 13.6748 33.9893C13.6748 34.4146 13.7599 34.7975 14.1853 35.0527C14.3554 35.1378 13.8875 34.84 14.1853 35.0527Z" fill="#00A736"/>
<path d="M12.016 33.0956C12.1436 33.1381 12.4839 33.2232 12.569 33.0956C12.654 32.968 12.3988 32.8404 12.3563 32.7553C11.9309 32.3725 11.8033 31.862 11.5906 31.3516C11.4205 31.6068 11.2929 31.862 11.3354 32.1598C11.3779 32.5851 11.6332 32.9254 12.016 33.0956C12.0585 33.0956 11.7608 32.968 12.016 33.0956Z" fill="#00A736"/>
<path d="M23.3309 31.0538C23.4585 30.756 23.416 30.4157 23.2884 30.118C23.2458 30.0754 22.9055 29.6501 22.9055 29.9478C22.9055 30.2881 22.9055 30.5859 22.7779 30.8837C22.6503 31.1814 22.4802 31.4366 22.3525 31.7344C22.7779 31.6493 23.1607 31.5217 23.3309 31.0538C23.416 30.7986 23.2033 31.3941 23.3309 31.0538Z" fill="#00A736"/>
<path d="M20.6933 34.3299C21.1612 34.3299 21.544 33.9896 21.6716 33.5642C21.7142 33.4366 21.7993 32.8836 21.5866 32.9262C21.4164 32.9262 21.3739 33.1388 21.2888 33.2239C21.2037 33.3515 21.0761 33.5217 20.9485 33.6068C20.6508 33.8194 20.353 33.9896 20.0127 34.1597C20.2679 34.2448 20.4381 34.3299 20.6933 34.3299Z" fill="#00A736"/>
<path d="M17.8426 35.6482C18.0978 35.6482 18.4807 35.5206 18.6508 35.3079C18.7359 35.2228 19.0337 34.7974 18.7359 34.7549C18.6508 34.7549 18.4381 34.8825 18.3531 34.925C18.1404 35.0101 17.9277 35.0526 17.715 35.0526C17.4172 35.0526 17.1195 35.0101 16.8643 35.0101C17.0769 35.3504 17.3747 35.6482 17.8426 35.6482Z" fill="#00A736"/>
<path d="M14.9084 33.4784C15.1637 33.8187 15.589 33.9889 16.0144 33.9038C16.0995 33.9038 16.7801 33.6486 16.6099 33.4784C16.5248 33.3934 16.3972 33.4359 16.2696 33.4359C16.0569 33.4359 15.8442 33.4359 15.6741 33.3508C15.3338 33.2232 15.036 33.0105 14.7383 32.7979C14.7383 33.0105 14.7383 33.2658 14.9084 33.4784C14.9935 33.6061 14.8234 33.3083 14.9084 33.4784Z" fill="#00A736"/>
<path d="M18.7795 33.6911C19.1623 33.6911 19.5877 33.4359 19.7578 33.053C19.8003 32.968 19.9705 32.3724 19.6727 32.4575C19.5451 32.5 19.375 32.7553 19.2474 32.8829C19.1198 32.968 18.9921 33.0105 18.8645 33.053C18.5668 33.1806 18.2265 33.2232 17.9287 33.3083C18.2265 33.5209 18.4392 33.6911 18.7795 33.6911Z" fill="#00A736"/>
</g>
<defs>
<clipPath id="clip0_93_8138">
<rect width="45.5999" height="68.2297" fill="white" transform="translate(0.700195 0.384766)"/>
</clipPath>
</defs>
</svg>
