<svg width="96" height="19" viewBox="0 0 96 19" fill="none" xmlns="http://www.w3.org/2000/svg">
<path d="M86.7689 14.6091L92.4735 18.0522L90.9597 11.5629L95.9997 7.19676L89.3627 6.63368L86.7689 0.513672L84.175 6.63368L77.5381 7.19676L82.5781 11.5629L81.0642 18.0522L86.7689 14.6091Z" fill="#FFC700"/>
<path d="M47.9993 14.6091L53.704 18.0522L52.1901 11.5629L57.2301 7.19676L50.5932 6.63368L47.9993 0.513672L45.4055 6.63368L38.7686 7.19676L43.8086 11.5629L42.2947 18.0522L47.9993 14.6091Z" fill="#FFC700"/>
<path d="M67.3841 14.6091L73.0887 18.0522L71.5749 11.5629L76.6149 7.19676L69.978 6.63368L67.3841 0.513672L64.7903 6.63368L58.1533 7.19676L63.1933 11.5629L61.6795 18.0522L67.3841 14.6091Z" fill="#FFC700"/>
<path d="M28.6156 14.6091L34.3202 18.0522L32.8063 11.5629L37.8463 7.19676L31.2094 6.63368L28.6156 0.513672L26.0217 6.63368L19.3848 7.19676L24.4248 11.5629L22.9109 18.0522L28.6156 14.6091Z" fill="#FFC700"/>
<path d="M9.23079 14.6091L14.9354 18.0522L13.4216 11.5629L18.4616 7.19676L11.8246 6.63368L9.23079 0.513672L6.63694 6.63368L0 7.19676L5.04001 11.5629L3.52616 18.0522L9.23079 14.6091Z" fill="#FFC700"/>
</svg>
