<svg width="25" height="9" viewBox="0 0 25 9" fill="none" xmlns="http://www.w3.org/2000/svg">
<path d="M24.0629 5.16784L20.5899 8.64083C20.4203 8.81044 20.1981 8.89525 19.9759 8.89525C19.7537 8.89525 19.5315 8.81044 19.3619 8.64083C19.0226 8.3016 19.0226 7.75204 19.3619 7.41281L21.3531 5.42153H0.870384C0.390797 5.42153 0.00195312 5.03311 0.00195312 4.55309C0.00195312 4.07308 0.390797 3.68466 0.870384 3.68466H21.3531L19.3619 1.69338C19.0226 1.35415 19.0226 0.804592 19.3619 0.465361C19.7011 0.12613 20.2506 0.12613 20.5899 0.465361L24.0629 3.93834C24.1433 4.01854 24.2069 4.11469 24.2511 4.22128C24.3389 4.43352 24.3388 4.67267 24.251 4.8849C24.2069 4.9915 24.1433 5.08765 24.0629 5.16784Z" fill="#0C0C0C"/>
</svg>
