<svg width="25" height="25" viewBox="0 0 25 25" fill="none" xmlns="http://www.w3.org/2000/svg">
<circle cx="12.5698" cy="12.4555" r="11.9643" fill="white" stroke="#7A7A7A" stroke-width="0.505946"/>
<path d="M14.7822 9.12109C15.9366 9.12133 16.8358 10.017 16.8359 11.1748C16.8359 11.8857 16.5197 12.5729 15.8594 13.3809C15.1934 14.1957 14.2309 15.0712 13.0225 16.167H13.0215L12.6875 16.4707L12.3535 16.167H12.3525C11.1441 15.0712 10.1816 14.1957 9.51562 13.3809C8.85521 12.5729 8.53906 11.8858 8.53906 11.1748C8.53918 10.0169 9.4383 9.12121 10.5928 9.12109C11.2497 9.12109 11.889 9.42986 12.3037 9.91309L12.6875 10.3604L13.0713 9.91309C13.486 9.42986 14.1253 9.12109 14.7822 9.12109Z" stroke="#7A7A7A" stroke-width="1.01189"/>
</svg>
